<svg width="27" height="27" viewBox="0 0 27 27" fill="none" xmlns="http://www.w3.org/2000/svg">
<g id="Icon Presentation">
<g id="Icon Presentation_2">
<g id="Group">
<path id="Vector" d="M25.5929 1.97092H1.40709C0.911281 1.97092 0.500122 1.55976 0.500122 1.06395C0.500122 0.568142 0.911281 0.156982 1.40709 0.156982H25.5929C26.0887 0.156982 26.4999 0.568142 26.4999 1.06395C26.4999 1.55976 26.0887 1.97092 25.5929 1.97092Z" fill="white"/>
<path id="Vector_2" d="M19.1478 25.661C18.9906 25.9754 18.664 26.1568 18.3375 26.1568C18.2045 26.1568 18.0594 26.1205 17.9385 26.0601L13.5004 23.8471L9.06222 26.0601C8.94129 26.1205 8.79618 26.1568 8.66315 26.1568C8.33664 26.1568 8.01013 25.9754 7.85293 25.661C7.62316 25.2015 7.80456 24.6573 8.26409 24.4396L12.5934 22.275V19.2034H14.4073V22.275L18.7366 24.4396C19.1961 24.6573 19.3775 25.2015 19.1478 25.661Z" fill="white"/>
<path id="Vector_3" d="M2.61639 1.06396V15.6964C2.61639 17.9941 3.82569 19.2033 6.12334 19.2033H20.8767C23.1744 19.2033 24.3837 17.9941 24.3837 15.6964V1.06396H2.61639ZM19.5223 9.02111L15.713 12.2015C15.3623 12.4918 14.9149 12.6127 14.4916 12.5401C14.0563 12.4676 13.6814 12.2015 13.4517 11.8146L12.1819 9.69831L8.63867 12.649C8.46937 12.7941 8.26379 12.8546 8.05821 12.8546C7.80426 12.8546 7.53821 12.7457 7.35682 12.5281C7.03031 12.1411 7.09078 11.5727 7.47775 11.2462L11.287 8.06577C11.6377 7.77554 12.0852 7.65461 12.5084 7.72717C12.9437 7.79972 13.3186 8.06577 13.5484 8.45274L14.8182 10.569L18.3614 7.61833C18.7484 7.29182 19.3167 7.35228 19.6432 7.73926C19.9576 8.12623 19.9093 8.6946 19.5223 9.02111Z" fill="white"/>
</g>
</g>
</g>
</svg>
