<svg width="31" height="31" viewBox="0 0 31 31" fill="none" xmlns="http://www.w3.org/2000/svg">
<g id="Icon Check">
<path id="Vector" d="M15.5 0.156982C7.23501 0.156982 0.500031 6.89196 0.500031 15.1569C0.500031 23.4219 7.23501 30.1569 15.5 30.1569C23.765 30.1569 30.4999 23.4219 30.4999 15.1569C30.4999 6.89196 23.765 0.156982 15.5 0.156982ZM22.67 11.707L14.165 20.2119C13.955 20.4219 13.67 20.5419 13.37 20.5419C13.07 20.5419 12.785 20.4219 12.575 20.2119L8.33001 15.9669C7.89501 15.5319 7.89501 14.8119 8.33001 14.3769C8.76501 13.9419 9.48501 13.9419 9.92 14.3769L13.37 17.8269L21.08 10.117C21.515 9.68196 22.235 9.68196 22.67 10.117C23.105 10.552 23.105 11.257 22.67 11.707Z" fill="white"/>
</g>
</svg>
