<svg width="25" height="25" viewBox="0 0 25 25" fill="none" xmlns="http://www.w3.org/2000/svg">
<path id="Vector" d="M17.7463 0.15686H7.26612C2.71385 0.15686 0 2.76086 0 7.12886V17.1729C0 21.5529 2.71385 24.1569 7.26612 24.1569H17.7338C22.2861 24.1569 25 21.5529 25 17.1849V7.12886C25.0125 2.76086 22.2986 0.15686 17.7463 0.15686ZM11.1931 18.7689C10.8304 19.1169 10.1426 19.4529 9.64231 19.5249L6.56577 19.9449C6.45322 19.9569 6.34066 19.9689 6.2281 19.9689C5.71535 19.9689 5.24011 19.8009 4.90244 19.4769C4.48974 19.0809 4.31465 18.5049 4.4147 17.8689L4.85242 14.9169C4.92746 14.4249 5.26512 13.7769 5.64031 13.4289L11.2181 8.07686C11.3181 8.32886 11.4182 8.58086 11.5558 8.86886C11.6808 9.12086 11.8184 9.38486 11.9685 9.62486C12.0935 9.82886 12.2311 10.0209 12.3437 10.1649C12.4812 10.3689 12.6438 10.5609 12.7438 10.6689C12.8064 10.7529 12.8564 10.8129 12.8814 10.8369C13.1941 11.1969 13.5568 11.5329 13.8694 11.7849C13.957 11.8689 14.007 11.9169 14.032 11.9289C14.2196 12.0729 14.4072 12.2169 14.5698 12.3249C14.7699 12.4689 14.97 12.6009 15.1826 12.7089C15.4327 12.8529 15.7078 12.9849 15.983 13.1169C16.2706 13.2369 16.5332 13.3449 16.7959 13.4289L11.1931 18.7689ZM19.2221 11.0649L18.0715 12.1809C17.9965 12.2529 17.8964 12.2889 17.7964 12.2889C17.7589 12.2889 17.7088 12.2889 17.6838 12.2769C15.145 11.5809 13.119 9.63686 12.3937 7.20086C12.3562 7.06886 12.3937 6.92486 12.4937 6.84086L13.6568 5.72486C15.5578 3.90086 17.3712 3.93686 19.2346 5.72486C20.1851 6.63686 20.6478 7.51286 20.6478 8.42486C20.6353 9.28886 20.1726 10.1529 19.2221 11.0649Z" fill="white"/>
</svg>
